<?xml version="1.0" standalone="no"?><svg xmlns="http://www.w3.org/2000/svg" viewBox="0 0 1440 320"><path fill="#0099ff" fill-opacity="1" d="M0,32L30,32C60,32,120,32,180,74.7C240,117,300,203,360,208C420,213,480,139,540,133.3C600,128,660,192,720,202.7C780,213,840,171,900,160C960,149,1020,171,1080,170.7C1140,171,1200,149,1260,154.7C1320,160,1380,192,1410,208L1440,224L1440,0L1410,0C1380,0,1320,0,1260,0C1200,0,1140,0,1080,0C1020,0,960,0,900,0C840,0,780,0,720,0C660,0,600,0,540,0C480,0,420,0,360,0C300,0,240,0,180,0C120,0,60,0,30,0L0,0Z"></path></svg>