<?xml version="1.0" standalone="no"?><svg xmlns="http://www.w3.org/2000/svg" viewBox="0 0 1440 320"><path fill="#0099ff" fill-opacity="1" d="M0,320L24,293.3C48,267,96,213,144,208C192,203,240,245,288,256C336,267,384,245,432,213.3C480,181,528,139,576,101.3C624,64,672,32,720,64C768,96,816,192,864,224C912,256,960,224,1008,197.3C1056,171,1104,149,1152,170.7C1200,192,1248,256,1296,282.7C1344,309,1392,299,1416,293.3L1440,288L1440,0L1416,0C1392,0,1344,0,1296,0C1248,0,1200,0,1152,0C1104,0,1056,0,1008,0C960,0,912,0,864,0C816,0,768,0,720,0C672,0,624,0,576,0C528,0,480,0,432,0C384,0,336,0,288,0C240,0,192,0,144,0C96,0,48,0,24,0L0,0Z"></path></svg>